<?xml version="1.0" encoding="utf-8"?>
<!-- Generator: Adobe Illustrator 25.0.0, SVG Export Plug-In . SVG Version: 6.00 Build 0)  -->
<svg version="1.1" id="Layer_1" focusable="false" xmlns="http://www.w3.org/2000/svg" xmlns:xlink="http://www.w3.org/1999/xlink"
	 x="0px" y="0px" viewBox="0 0 512 512" style="enable-background:new 0 0 512 512;" xml:space="preserve">
<style type="text/css">
	.st0{fill:#FFFFFF;}
</style>
<path class="st0" d="M256,0C114.6,0,0,114.6,0,256s114.6,256,256,256s256-114.6,256-256S397.4,0,256,0z M351.5,323.1L351.5,323.1
	l-20.6,25.8c-5.7,7.1-16.1,8.3-23.2,2.6c0,0,0,0,0,0l0,0l-69.2-51.3c-9.8-7.8-15.5-19.7-15.5-32.2V107.4c0-9.1,7.4-16.5,16.5-16.5
	h33c9.1,0,16.5,7.4,16.5,16.5V256l59.9,43.9C356,305.6,357.2,316,351.5,323.1C351.5,323.1,351.5,323.1,351.5,323.1z"/>
</svg>
