<?xml version="1.0" encoding="UTF-8" standalone="no"?>
<!DOCTYPE svg PUBLIC "-//W3C//DTD SVG 1.1//EN" "http://www.w3.org/Graphics/SVG/1.1/DTD/svg11.dtd">
<svg width="100%" height="100%" viewBox="0 0 48 48" version="1.1" xmlns="http://www.w3.org/2000/svg" xmlns:xlink="http://www.w3.org/1999/xlink" xml:space="preserve" xmlns:serif="http://www.serif.com/" style="fill-rule:evenodd;clip-rule:evenodd;stroke-linejoin:round;stroke-miterlimit:2;">
    <g>
        <rect x="0" y="0" width="48" height="48" style="fill:none;"/>
    </g>
    <g transform="matrix(1.25,0,0,1.25,-6,-6)">
        <path d="M24,4.8C13.392,4.8 4.8,13.392 4.8,24C4.8,34.608 13.392,43.2 24,43.2C34.608,43.2 43.2,34.608 43.2,24C43.2,13.392 34.608,4.8 24,4.8ZM19.2,30.216L19.2,17.784C19.2,16.848 20.256,16.272 21.048,16.776L30.816,22.992C31.56,23.472 31.56,24.552 30.816,25.008L21.048,31.224C20.256,31.728 19.2,31.152 19.2,30.216Z" style="fill:white;fill-rule:nonzero;"/>
    </g>
</svg>
