<?xml version="1.0" encoding="UTF-8" standalone="no"?>
<!DOCTYPE svg PUBLIC "-//W3C//DTD SVG 1.1//EN" "http://www.w3.org/Graphics/SVG/1.1/DTD/svg11.dtd">
<svg width="100%" height="100%" viewBox="0 0 24 24" version="1.1" xmlns="http://www.w3.org/2000/svg" xmlns:xlink="http://www.w3.org/1999/xlink" xml:space="preserve" xmlns:serif="http://www.serif.com/" style="fill-rule:evenodd;clip-rule:evenodd;stroke-linejoin:round;stroke-miterlimit:2;">
    <g>
        <rect x="0" y="0" width="24" height="24" style="fill:none;"/>
    </g>
    <g transform="matrix(1.14286,0,0,1.14286,-1.71429,-1.14286)">
        <g>
            <g>
                <path d="M19,6L17,6C17,3.24 14.76,1 12,1C9.24,1 7,3.24 7,6L5,6C3.9,6 3,6.9 3,8L3,20C3,21.1 3.9,22 5,22L19,22C20.1,22 21,21.1 21,20L21,8C21,6.9 20.1,6 19,6ZM12,3C13.66,3 15,4.34 15,6L9,6C9,4.34 10.34,3 12,3ZM12,14C9.67,14 7.71,12.41 7.16,10.25C6.99,9.62 7.48,9 8.13,9C8.6,9 8.98,9.34 9.11,9.8C9.46,11.07 10.62,12 12,12C13.38,12 14.54,11.07 14.89,9.8C15.02,9.34 15.4,9 15.87,9C16.52,9 17,9.62 16.84,10.25C16.29,12.41 14.33,14 12,14Z" style="fill:white;fill-rule:nonzero;"/>
            </g>
        </g>
    </g>
</svg>
