<?xml version="1.0" encoding="utf-8"?>
<!-- Generator: Adobe Illustrator 25.0.1, SVG Export Plug-In . SVG Version: 6.00 Build 0)  -->
<svg version="1.1" id="Layer_1" xmlns="http://www.w3.org/2000/svg" xmlns:xlink="http://www.w3.org/1999/xlink" x="0px" y="0px"
	 viewBox="0 0 160 64" style="enable-background:new 0 0 160 64;" xml:space="preserve">
<path d="M0,22.1L1.9,18c2.3,1.6,5,2.5,7.8,2.5c3.3,0,4.6-1.1,4.6-2.6c0-4.4-13.8-1.4-13.8-10.2c0-4,3.3-7.4,10-7.4
	c2.9,0,5.8,0.7,8.3,2.2l-1.7,4.1c-2-1.2-4.3-1.8-6.6-1.9C7.2,4.8,6,6.1,6,7.5c0,4.4,13.8,1.3,13.8,10c0,3.9-3.3,7.3-10.1,7.3
	C6.3,24.9,2.9,24,0,22.1z"/>
<path d="M38.4,5.3h-7.7V0.8h20.7v4.5h-7.7v19.2h-5.4V5.3z"/>
<path d="M79.1,19.4H68l-2.1,5.1h-5.6L70.9,0.8h5.4L87,24.4h-5.8L79.1,19.4z M77.3,15.2l-3.8-9l-3.8,9H77.3z"/>
<path d="M99.6,0.8h5.5V20h11.9v4.5H99.6V0.8z"/>
<path d="M46.9,40h5.5v19.2h11.9v4.5H46.9V40z"/>
<path d="M77.7,40h5.5v23.6h-5.5L77.7,40z"/>
<path d="M97.5,51.8c0-7,5.5-12.2,13-12.2c7.5,0,13,5.1,13,12.2S118,64,110.5,64C103,64,97.5,58.8,97.5,51.8z M118,51.8
	c0-1-0.1-2-0.5-2.9c-0.4-0.9-0.9-1.8-1.6-2.5c-0.7-0.7-1.5-1.3-2.5-1.7c-0.9-0.4-1.9-0.6-2.9-0.6c-1,0-2,0.2-2.9,0.6
	c-0.9,0.4-1.8,1-2.5,1.7c-0.7,0.7-1.2,1.6-1.6,2.5c-0.4,0.9-0.5,1.9-0.5,2.9c0,1,0.1,2,0.5,2.9c0.4,0.9,0.9,1.8,1.6,2.5
	c0.7,0.7,1.5,1.3,2.5,1.7c0.9,0.4,1.9,0.6,2.9,0.6c1,0,2-0.2,2.9-0.6c0.9-0.4,1.8-1,2.5-1.7c0.7-0.7,1.2-1.6,1.6-2.5
	C117.9,53.8,118,52.8,118,51.8z"/>
<path d="M159.7,40v23.6h-4.5l-11.8-14.3v14.3h-5.4V40h4.6l11.8,14.3V40H159.7z"/>
<path d="M135,0v5.2h19.4v19h4.9V0H135z"/>
<path d="M5.2,58.3v-19H0.2v24.2h24.3v-5.2H5.2z"/>
</svg>
