<?xml version="1.0" encoding="utf-8"?>
<!-- Generator: Adobe Illustrator 25.0.1, SVG Export Plug-In . SVG Version: 6.00 Build 0)  -->
<svg version="1.1" id="Layer_1" xmlns="http://www.w3.org/2000/svg" xmlns:xlink="http://www.w3.org/1999/xlink" x="0px" y="0px"
	 viewBox="0 0 159 64" style="enable-background:new 0 0 159 64;" xml:space="preserve">
<path d="M27,12c0,0.5-0.1,1-0.4,1.4c-0.2,0.4-0.5,0.8-0.9,1.1c-0.8,0.6-1.8,1-2.8,1c-0.8,0.1-1.5-0.2-2.1-0.6
	c-0.2-0.2-0.4-0.5-0.6-0.8C20,13.8,20,13.5,20,13.2c0-0.8,0.2-1.6,0.7-2.3c0.5-0.6,1.2-1,2-1.2h-0.5c-1.7,0-3.3,0.4-4.7,1.3
	c-0.9,0.6-1.7,1.5-2.2,2.5c-0.7,1.4-1.2,2.9-1.6,4.4l-0.5,1.8h5.7c1.9,0,3.8-0.2,5.7-0.6l-5.1,17.5c-0.1,0.4-0.2,0.7-0.2,1.1
	c0,0.6,0.3,0.8,0.8,0.8c0.2,0,0.5-0.1,0.7-0.2c0.2-0.1,0.4-0.3,0.5-0.5c0.6-0.7,1-1.6,1.3-2.4l0.8-1.9H24l-1,2.9
	c-0.4,1.3-1.2,2.4-2.3,3.1c-1,0.6-2.1,0.9-3.2,0.9c-0.5,0-0.9,0-1.4-0.2c-0.4-0.1-0.8-0.4-1.2-0.7c-0.6-0.7-0.9-1.5-0.8-2.4
	c0-1,0.2-2,0.5-2.9l4.1-13.8H13L5.7,46.6c-1.9,0-3.8,0.2-5.7,0.6l7.4-26.9H4l0.2-0.8h3.4c0.5-1.7,1.2-3.4,2.1-5
	c0.8-1.2,1.8-2.3,3-3.1c1.3-0.8,2.7-1.4,4.2-1.8C18.7,9.2,20.4,9,22.1,9c1.4-0.1,2.8,0.3,4,1.1c0.3,0.2,0.5,0.5,0.7,0.8
	C27,11.3,27,11.6,27,12z"/>
<path d="M44.5,19.8c0.3,0.3,0.5,0.7,0.7,1.1c0.1,0.4,0.2,0.8,0.2,1.2c0,1.1-0.4,2.1-1.1,2.9c-0.3,0.4-0.7,0.7-1.2,0.9
	c-0.5,0.2-1,0.3-1.5,0.3c-0.6,0.1-1.3-0.1-1.8-0.6c-0.2-0.2-0.4-0.5-0.5-0.8c-0.1-0.3-0.2-0.6-0.1-0.9c0-0.9,0.3-1.8,0.9-2.5
	c0.6-0.7,1.4-1.2,2.3-1.4c-0.1,0-0.2,0-0.2,0c-0.1,0-0.2-0.1-0.3-0.1c-1.3,0-2.7,1-4.1,2.9c-1.4,1.9-2.8,5.4-4.3,10.4l-1.7,6.6h-5.6
	l4.8-17c0.1-0.4,0.2-0.8,0.2-1.2c0-0.5-0.2-0.7-0.6-0.7c-0.3,0-0.5,0.1-0.7,0.2c-0.2,0.1-0.4,0.3-0.6,0.5c-0.6,0.7-1,1.5-1.3,2.4
	l-0.8,2h-0.7l1.1-3c0.3-1.2,1-2.2,2-3c1-0.7,2.2-1.1,3.4-1.1c2,0,3,1,3,3.2c0,0.8-0.1,1.6-0.3,2.4l-0.3,1.3c0.6-1.9,1.7-3.7,3-5.2
	c0.5-0.5,1-0.9,1.7-1.1c0.6-0.3,1.3-0.4,2-0.4c0.4,0,0.8,0,1.2,0.2C43.8,19.3,44.2,19.5,44.5,19.8z"/>
<path d="M46.8,43.1c0.7,0.1,1.5,0.2,2.2,0.2c1.1,0,2.2-0.1,3.3-0.5c1-0.4,2-1,2.8-1.7c0.8-0.8,1.4-1.8,1.8-2.9
	c0.4-1.1,0.6-2.2,0.5-3.4c0-1.8-0.3-3.5-1-5.1c-0.9-2-2-4-3.3-5.8c-1.5-2-2.9-4.1-4.1-6.2c-0.9-1.8-1.3-3.8-1.3-5.8
	c0-2.2,0.6-4.3,1.8-6.1c1.2-1.8,2.8-3.2,4.7-4.2c2-1,4.2-1.5,6.4-1.5c2.5-0.1,5,0.5,7.3,1.6c1,0.6,1.8,1.4,2.3,2.4
	c0.5,1,0.7,2.1,0.6,3.2c0,1-0.3,2.1-1,2.9c-0.3,0.5-0.7,0.8-1.2,1.1c-0.5,0.2-1.1,0.4-1.6,0.3c-0.4,0-0.9-0.1-1.3-0.2
	c-0.4-0.2-0.8-0.4-1.1-0.7c-0.3-0.3-0.6-0.7-0.7-1.1c-0.2-0.4-0.2-0.9-0.2-1.3c0.1-2.1,0.9-4,2.3-5.6c-1.3-0.7-2.7-1.1-4.2-1
	c-1,0-1.9,0.1-2.8,0.5c-0.9,0.4-1.7,0.9-2.4,1.6c-0.7,0.8-1.3,1.7-1.6,2.7c-0.4,1-0.5,2-0.4,3.1c0,1.3,0.2,2.5,0.8,3.7
	c0.8,1.6,1.7,3.1,2.8,4.5l1.5,2.1c1.4,2.1,2.6,4.3,3.7,6.5c0.8,1.8,1.3,3.7,1.3,5.6c0,2.4-0.7,4.7-2,6.7c-1.3,2-3.1,3.6-5.2,4.6
	c-2.2,1.1-4.7,1.7-7.1,1.7c-2.8,0.1-5.6-0.6-8-2c-1-0.6-1.9-1.5-2.5-2.6c-0.6-1.1-0.8-2.3-0.8-3.5c0-0.9,0.3-1.8,0.8-2.6
	c0.3-0.4,0.6-0.7,1.1-0.9c0.4-0.2,0.9-0.3,1.4-0.3c0.5,0,1.1,0.1,1.5,0.4c0.5,0.3,0.8,0.6,1.1,1.1c0.6,1.1,1,2.4,0.9,3.7
	c-0.1,1.5-0.3,2.9-0.6,4.3C45.7,42.8,46.2,43,46.8,43.1z"/>
<path d="M72.6,36.4c-0.1,0.3-0.1,0.5-0.1,0.8c0,0.2,0,0.3,0.1,0.5c0.1,0.2,0.1,0.3,0.3,0.4c0.1,0.1,0.3,0.2,0.4,0.2
	c0.1,0.1,0.3,0.1,0.5,0.1c0.3,0,0.6-0.1,0.9-0.2c0.3-0.1,0.5-0.3,0.7-0.6c0.6-0.7,1.1-1.6,1.4-2.6l0.6-1.6h0.7l-0.8,2.3
	c-1,3.1-3,4.6-5.9,4.6c-0.5,0-1.1,0-1.6-0.2s-1-0.5-1.4-0.8c-0.4-0.4-0.6-0.8-0.8-1.3c-0.2-0.5-0.2-1-0.2-1.5c0-0.8,0.2-1.6,0.4-2.3
	l3.9-13.8h-3.5l0.2-0.8H72l1.7-5.8c1.9,0,3.8-0.2,5.7-0.6l-1.9,6.4H82l-0.1,0.8h-4.6L72.6,36.4z"/>
<path d="M101.3,33.3h0.7l-1.1,3c-0.4,1.2-1.1,2.3-2.1,3.1c-0.9,0.6-2,1-3.1,0.9c-0.6,0-1.2-0.1-1.8-0.4c-0.5-0.2-0.9-0.5-1.1-1
	c-0.2-0.5-0.4-1-0.3-1.6c0-0.9,0.2-1.7,0.4-2.6l1.1-4.1c-0.8,2-1.8,4-3,5.8c-0.7,1.2-1.7,2.2-2.9,2.9c-1,0.6-2.1,0.9-3.3,0.8
	c-1,0.1-1.9-0.2-2.7-0.8c-0.3-0.3-0.5-0.7-0.7-1.1c-0.1-0.4-0.2-0.8-0.2-1.3c0-0.9,0.2-1.8,0.5-2.7l3.8-11.5
	c0.1-0.4,0.2-0.8,0.2-1.3c0-0.6-0.2-0.8-0.7-0.8c-0.2,0-0.5,0.1-0.7,0.2c-0.2,0.1-0.4,0.3-0.6,0.5c-0.6,0.7-1,1.5-1.3,2.4l-0.7,1.9
	H81l1-2.9c0.3-1.2,1-2.2,1.9-3c1-0.7,2.2-1.1,3.4-1.1c2.4,0,3.6,1.1,3.6,3.3c0,1-0.2,2-0.6,3l-3.5,10.6c-0.2,0.5-0.3,1.1-0.4,1.7
	c0,0.6,0.2,0.9,0.7,0.9c0.8,0,1.7-0.8,2.8-2.3c1.3-1.9,2.4-4,3.3-6.1c1.1-2.7,2.1-5.4,2.9-8.2l0.6-2.2c1.9,0,3.8-0.2,5.7-0.6
	l-4.9,17.5c-0.1,0.4-0.2,0.8-0.2,1.3c0,0.1,0,0.2,0,0.3s0.1,0.2,0.1,0.2c0.1,0.1,0.1,0.1,0.2,0.1c0.1,0,0.2,0,0.3,0
	c0.3,0,0.5-0.1,0.7-0.2c0.2-0.1,0.4-0.3,0.6-0.5c0.5-0.7,0.9-1.5,1.2-2.4L101.3,33.3z"/>
<path d="M124,33.4h0.8l-0.9,2.9c-0.3,1.3-1.1,2.4-2.1,3.1c-0.9,0.6-2,0.9-3.1,0.9c-0.6,0.1-1.3,0-1.9-0.4c-0.6-0.3-1-0.8-1.3-1.4
	c-0.2-0.5-0.3-1.1-0.3-1.7c0-0.9,0.2-1.9,0.5-2.8v-0.2c-0.7,1.8-1.8,3.5-3.2,4.9c-1.1,1-2.5,1.6-4,1.5c-0.6,0-1.3-0.1-1.8-0.3
	c-0.6-0.2-1.1-0.6-1.5-1.1c-0.9-1.2-1.4-2.6-1.3-4.1c0.1-2.4,0.6-4.8,1.7-6.9c1.1-2.5,2.7-4.6,4.7-6.4c1.9-1.7,4.3-2.6,6.8-2.6
	c0.5-0.1,1,0,1.4,0.2c0.4,0.2,0.8,0.6,1,1l1.8-6.7c0.1-0.4,0.2-0.7,0.2-1.1c0-0.2,0-0.5-0.1-0.7c-0.1-0.2-0.3-0.4-0.5-0.5
	c-0.7-0.3-1.4-0.4-2.1-0.4l0.2-0.8c1.7,0,3.3-0.2,5-0.4c1.5-0.3,2.9-0.6,4.3-1.2l-7.7,27.9c-0.1,0.3-0.2,0.7-0.2,1.1
	c0,0.6,0.2,0.9,0.8,0.9c0.2,0,0.5-0.1,0.7-0.2c0.2-0.1,0.4-0.3,0.5-0.5c0.6-0.7,1-1.5,1.3-2.4L124,33.4z M119.1,21.2
	c-0.3-0.9-0.8-1.4-1.6-1.4c-1.1,0-2.3,0.8-3.5,2.4c-1.4,1.9-2.4,3.9-3.1,6.1c-0.8,2.3-1.3,4.8-1.3,7.3c0,0.7,0.1,1.4,0.3,2
	c0.1,0.2,0.2,0.4,0.4,0.5c0.2,0.1,0.4,0.2,0.6,0.2c0.7-0.1,1.4-0.5,1.9-1.2c0.9-1,1.6-2.1,2.2-3.4c0.9-1.7,1.6-3.4,2.1-5.2
	L119.1,21.2z"/>
<path d="M132.3,21.6c0-0.5-0.2-0.8-0.7-0.8c-0.3,0-0.5,0.1-0.7,0.2c-0.2,0.1-0.4,0.3-0.6,0.5c-0.5,0.7-1,1.5-1.3,2.4l-0.8,2h-0.7
	l1.1-3c0.3-1.2,1-2.2,2-3c1-0.7,2.2-1.1,3.5-1.1c0.5,0,1,0,1.4,0.2c0.5,0.2,0.9,0.4,1.2,0.7c0.6,0.6,0.9,1.4,0.8,2.3
	c0,0.8-0.2,1.6-0.4,2.3l-4.1,12c-0.1,0.4-0.2,0.7-0.2,1.1c0,0.6,0.3,0.8,0.8,0.8c0.2,0,0.5-0.1,0.7-0.2c0.2-0.1,0.4-0.3,0.6-0.5
	c0.6-0.7,1-1.6,1.3-2.4l0.7-1.9h0.8l-1,2.9c-0.3,1.2-1,2.2-1.9,3c-1,0.7-2.2,1.1-3.4,1.1c-2.4,0-3.6-1.1-3.6-3.3c0-1,0.2-2,0.6-3
	l3.8-11.3C132.1,22.4,132.2,22,132.3,21.6z M134.7,10.3c0.8-0.6,1.8-1,2.8-0.9c0.8,0,1.5,0.2,2.1,0.6c0.3,0.2,0.5,0.5,0.6,0.8
	s0.2,0.6,0.2,1c0,0.5-0.1,1-0.3,1.4c-0.2,0.4-0.5,0.8-0.9,1.1c-0.8,0.7-1.9,1.1-2.9,1c-0.8,0.1-1.6-0.2-2.2-0.7
	c-0.3-0.2-0.4-0.5-0.6-0.8c-0.1-0.3-0.2-0.7-0.1-1c0-0.5,0.1-1,0.3-1.4C134,11,134.3,10.6,134.7,10.3z"/>
<path d="M141.2,27.1c1-2.3,2.5-4.3,4.4-5.8c2-1.6,4.4-2.4,6.9-2.4c0.9-0.1,1.7,0.1,2.5,0.3s1.6,0.7,2.2,1.3c0.6,0.7,1,1.4,1.3,2.2
	c0.3,0.8,0.4,1.7,0.3,2.6c0,2.3-0.5,4.6-1.5,6.7c-1,2.3-2.5,4.3-4.4,5.8c-2,1.6-4.4,2.4-6.9,2.4c-0.9,0.1-1.7-0.1-2.5-0.4
	c-0.8-0.3-1.6-0.7-2.2-1.3c-0.6-0.6-1-1.4-1.3-2.2c-0.3-0.8-0.4-1.7-0.3-2.6C139.7,31.5,140.2,29.2,141.2,27.1z M149.1,22.5
	c-1.3,2.1-2.3,4.4-2.9,6.8c-0.7,2.4-1.1,5-1.2,7.5c0,0.7,0.1,1.4,0.3,2c0.1,0.2,0.2,0.4,0.4,0.5s0.4,0.2,0.6,0.2c1,0,2-0.9,3.2-2.7
	c1.3-2.1,2.3-4.4,2.9-6.7c0.8-2.5,1.2-5.1,1.2-7.7c0.1-0.7-0.1-1.5-0.3-2.1c-0.1-0.2-0.2-0.3-0.4-0.5c-0.2-0.1-0.4-0.2-0.6-0.2
	C151.3,19.7,150.3,20.6,149.1,22.5z"/>
<path d="M24.9,57.8l-1,5.9h-2.7l2.8-16h5.5c0.7,0,1.4,0.1,2.1,0.3c0.7,0.2,1.3,0.6,1.8,1.1c0.5,0.5,0.9,1,1.1,1.7
	c0.2,0.6,0.3,1.3,0.2,2c0,0.7-0.2,1.4-0.6,2.1c-0.3,0.6-0.8,1.2-1.3,1.6c-1.3,1-2.9,1.5-4.5,1.4L24.9,57.8z M25.3,55.6h3.1
	c0.9,0,1.7-0.2,2.4-0.8c0.6-0.5,1.1-1.2,1.2-2.1c0.1-0.3,0.1-0.7,0-1c-0.1-0.3-0.2-0.7-0.4-0.9c-0.2-0.3-0.5-0.5-0.8-0.6
	c-0.3-0.1-0.7-0.2-1-0.2h-3.4L25.3,55.6z"/>
<path d="M43.7,58.7h-2.3l-0.9,5h-2.8L40.2,50h4.6c1.3-0.1,2.5,0.3,3.5,1.1c0.4,0.4,0.7,0.8,0.9,1.4c0.2,0.5,0.3,1.1,0.2,1.6
	c0,0.9-0.4,1.7-0.9,2.5c-0.5,0.7-1.3,1.2-2.1,1.5l1.9,5.6v0.2h-3L43.7,58.7z M41.8,56.4h2.1c0.7,0,1.3-0.2,1.8-0.6
	c0.5-0.4,0.8-0.9,0.9-1.6c0.1-0.2,0.1-0.5,0-0.7c-0.1-0.2-0.2-0.5-0.3-0.7c-0.2-0.2-0.4-0.3-0.6-0.4s-0.5-0.1-0.7-0.1h-2.4
	L41.8,56.4z"/>
<path d="M55.2,63.8h-2.7L54.9,50h2.7L55.2,63.8z"/>
<path d="M72.8,63.8h-2.6l-5-11.5l-2,11.5h-2.7l2.8-16h2.6l5,11.5l2-11.5h2.7L72.8,63.8z"/>
<path d="M92.5,50h-4.9l-2.4,13.8h-2.7L84.9,50h-4.8l0.4-2.2h12.4L92.5,50z"/>
<path d="M97.8,63.8h-2.7l2.8-16h2.7L97.8,63.8z"/>
<path d="M116.5,63.8h-2.7l-5-11.5l-2,11.5H104l2.8-16h2.6l5,11.5l2-11.5h2.7L116.5,63.8z"/>
<path d="M134.9,61.7c-0.7,0.8-1.6,1.4-2.6,1.7c-1.2,0.4-2.4,0.6-3.6,0.6c-1,0-1.9-0.2-2.8-0.7c-0.8-0.5-1.5-1.2-1.9-2
	c-0.5-0.9-0.8-2-0.8-3c0-1.1,0.1-2.2,0.3-3.4c0.2-1.3,0.6-2.5,1.3-3.6c0.5-1,1.3-1.9,2.2-2.6c1.2-0.8,2.6-1.2,4.1-1.2
	c0.7,0,1.4,0.1,2.1,0.3c0.7,0.2,1.3,0.6,1.8,1.1c1,1,1.5,2.4,1.5,3.7h-2.7c-0.2-1.9-1.1-2.8-2.8-2.9c-0.6,0-1.2,0.1-1.7,0.3
	s-1,0.6-1.4,1c-0.9,1.2-1.5,2.6-1.7,4c-0.2,0.8-0.2,1.6-0.3,2.5c-0.1,1.1,0.2,2.2,0.7,3.1c0.3,0.4,0.6,0.7,1,0.9
	c0.4,0.2,0.8,0.3,1.3,0.3c1.1,0.1,2.3-0.3,3.2-1l0.6-3.1h-3.2l0.4-2.1h5.9L134.9,61.7z"/>
</svg>
