<?xml version="1.0" encoding="utf-8"?>
<!-- Generator: Adobe Illustrator 25.0.1, SVG Export Plug-In . SVG Version: 6.00 Build 0)  -->
<svg version="1.1" id="Layer_1" xmlns="http://www.w3.org/2000/svg" xmlns:xlink="http://www.w3.org/1999/xlink" x="0px" y="0px"
	 viewBox="0 0 152 64" style="enable-background:new 0 0 152 64;" xml:space="preserve">
<path d="M62.5,28.6c0.4,0,0.7-0.1,1.1-0.2c0.3-0.1,0.5-0.3,0.6-0.6c0.2-0.5,0.2-1,0.2-1.5V16.1c0-0.8,0-1.6,0.1-2.4l-2,0.1v-2.1h7.7
	c2-0.1,4,0.3,5.7,1.3c0.7,0.5,1.2,1.1,1.6,1.9s0.5,1.6,0.4,2.4c0,1.2-0.4,2.3-1.2,3.3c-0.9,1-2.2,1.8-3.5,2.1c0.4,0.2,0.7,0.4,1,0.7
	c0.3,0.3,0.6,0.6,0.9,1l1.3,1.9c0.4,0.7,0.9,1.4,1.5,2c0.4,0.4,0.9,0.6,1.5,0.6v1.8h-4.5c-0.4-0.3-0.7-0.6-0.9-1
	c-0.4-0.5-0.7-1-1-1.6l-2-3.2c-0.3-0.6-0.7-1.1-1.1-1.5h-1.4V26c0,0.8,0,1.6-0.1,2.4c0.6-0.1,1.3-0.1,2.3-0.1v2h-8V28.6z M72.8,20.2
	c0.4-0.4,0.6-0.9,0.8-1.4c0.2-0.5,0.2-1.1,0.2-1.6c0.1-0.5,0-1.1-0.2-1.6c-0.2-0.5-0.5-1-1-1.3c-0.8-0.5-1.7-0.7-2.6-0.7
	c-0.5,0-1,0.1-1.4,0.4c-0.4,0.5-0.5,1.1-0.4,1.7v5.5c0.4,0.1,0.9,0.1,1.3,0.1c0.6,0.1,1.2,0,1.7-0.2C71.8,20.9,72.3,20.6,72.8,20.2z
	"/>
<path d="M89,28.6c0.4,0,0.7-0.1,1.1-0.2c0.1-0.1,0.3-0.1,0.4-0.3c0.1-0.1,0.2-0.2,0.2-0.4c0.2-0.5,0.2-1,0.2-1.5V16.1
	c0-0.8,0-1.6,0.1-2.4l-2,0.1v-2.1h7.7v1.8c-0.4,0-0.7,0.1-1.1,0.2c-0.1,0.1-0.3,0.1-0.4,0.3c-0.1,0.1-0.2,0.2-0.2,0.4
	c-0.2,0.5-0.2,1-0.2,1.5V26c0,0.8,0,1.6-0.1,2.4c0.6,0,1.3-0.1,2-0.1v2h-7.7L89,28.6z"/>
<path d="M111.2,29.6c-1.4-0.8-2.5-2-3.3-3.4c-0.8-1.5-1.2-3.1-1.2-4.8c0-1.7,0.4-3.3,1.1-4.9c0.7-1.5,1.8-2.8,3.2-3.8
	c1.5-1,3.3-1.5,5.1-1.4c0.8,0,1.6,0.1,2.3,0.3c0.8,0.2,1.6,0.5,2.3,1l-0.1-1.1h2.1v6.2h-1.7c-0.5-3-2-4.5-4.5-4.5
	c-1.1,0-2.2,0.3-3.1,1c-0.9,0.8-1.5,1.7-1.9,2.8c-0.4,1.2-0.6,2.5-0.6,3.7c0,1.4,0.2,2.8,0.7,4.1c0.4,1.1,1.1,2.1,1.9,2.8
	c0.9,0.7,1.9,1,3,1c1.2,0,2.3-0.3,3.4-0.9c1.1-0.6,2-1.4,2.8-2.5l1.3,1.2c-1,1.4-2.3,2.6-3.8,3.4c-1.3,0.6-2.8,0.9-4.2,0.9
	C114.4,30.9,112.7,30.4,111.2,29.6z"/>
<path d="M133.9,28.6c0.4,0,0.7-0.1,1.1-0.2c0.1-0.1,0.3-0.1,0.4-0.3c0.1-0.1,0.2-0.2,0.2-0.4c0.2-0.5,0.2-1,0.2-1.5V16.1
	c0-0.8,0-1.6,0.1-2.4l-2,0.1v-2.1h7.7v1.8c-0.4,0-0.8,0.1-1.1,0.2c-0.1,0.1-0.3,0.2-0.4,0.3c-0.1,0.1-0.2,0.2-0.2,0.4
	c-0.2,0.5-0.2,1-0.2,1.5v4.1h1.9l2.1-3.5c0.5-1,1.1-1.9,1.8-2.7l-1,0.1c-0.3,0-0.5,0-0.7,0v-2h6.6v1.8c-0.8,0-1.5,0.2-2.2,0.6
	c-0.8,0.5-1.5,1.3-2,2.1l-2.6,4.1c0.7,0.4,1.2,0.9,1.7,1.5l2.8,3.8c1.3,1.9,2.6,2.8,3.5,2.9v1.8h-4.1c-0.2,0-0.6-0.3-1.2-0.9
	c-0.5-0.6-1-1.2-1.5-1.8l-2.7-3.8c-0.3-0.4-0.5-0.7-0.8-1.1c-0.2-0.3-0.5-0.5-0.8-0.8h-1v4c0,0.8,0,1.6-0.1,2.4c0.6,0,1.3-0.1,2-0.1
	v2h-7.7L133.9,28.6z"/>
<path d="M6.4,55c-0.3-0.6-0.6-1.5-1-2.6c-0.4-1.1-0.7-2.3-0.9-3.4c0,1.6,0.1,3.1,0.1,4.4v0.9v4.8c0,0.8,0,1.6-0.1,2.4
	c0.6,0,1.3-0.1,2-0.1v2.1H0.3v-1.8c0.4,0,0.8-0.1,1.1-0.2c0.1-0.1,0.3-0.1,0.4-0.3C1.9,61.3,1.9,61.1,2,61c0.2-0.5,0.2-1,0.2-1.5
	l0.2-10.2c0-1.3,0.1-2.1,0.1-2.4l-2,0.1v-2h6l4.1,10.3c0.3,0.7,0.6,1.5,0.9,2.3c0.3,0.8,0.5,1.5,0.6,1.9c0.1-0.2,0.3-0.7,0.6-1.7
	c0.3-0.9,0.5-1.4,0.7-1.9l4.2-11h6.2v1.8c-0.4,0-0.8,0.1-1.1,0.2c-0.1,0.1-0.3,0.1-0.4,0.2c-0.1,0.1-0.2,0.2-0.2,0.4
	c-0.2,0.5-0.2,1-0.2,1.5l0.4,10.2c0.1,0.8,0,1.6-0.1,2.4c0.6,0,1.3-0.1,2-0.1v2.1h-7.5v-1.8c0.4,0,0.8-0.1,1.1-0.2
	c0.1-0.1,0.3-0.1,0.4-0.3c0.1-0.1,0.2-0.2,0.2-0.4c0.2-0.5,0.2-1,0.2-1.5l-0.2-5.7v-1c-0.1-1.7-0.1-2.9-0.2-3.6l-5.7,14.6H10L6.4,55
	z"/>
<path d="M34.6,61.8c0.4,0,0.8-0.1,1.1-0.2c0.1-0.1,0.3-0.1,0.4-0.3c0.1-0.1,0.2-0.2,0.2-0.4c0.2-0.5,0.2-1,0.2-1.5V49.2
	c0-0.8,0-1.6,0.1-2.4l-2,0.1v-2h13.5l0.2,5.2h-1.8c0.1-0.5,0.1-0.9-0.1-1.4c-0.1-0.4-0.4-0.8-0.7-1.2c-0.3-0.3-0.7-0.6-1.1-0.7
	c-0.4-0.2-0.9-0.2-1.4-0.1h-1c-0.4,0-0.7,0.1-1,0.2c-0.1,0.1-0.3,0.2-0.4,0.3c-0.1,0.1-0.2,0.2-0.2,0.4c-0.2,0.5-0.2,1-0.2,1.5v4
	h3.2c0-0.3,0-1.1-0.1-2.3h2.1v6.5h-1.8c0-0.5-0.1-1.1-0.3-1.6c-0.2-0.3-0.5-0.5-0.9-0.7c-0.5-0.1-1-0.1-1.4-0.1h-0.7v4.4
	c0,0.8,0,1.6-0.1,2.4H44c0.4,0,0.9-0.1,1.3-0.2c0.4-0.2,0.8-0.4,1.1-0.7c0.4-0.4,0.6-0.9,0.8-1.4c0.2-0.5,0.2-1,0.2-1.6H49l-0.1,5.9
	H34.6V61.8z"/>
<path d="M63.5,61.8c0.4,0,0.7-0.1,1.1-0.2c0.1-0.1,0.3-0.1,0.4-0.3c0.1-0.1,0.2-0.2,0.2-0.4c0.2-0.5,0.2-1,0.2-1.5v-2.3l-5-7.8
	c-0.3-0.4-0.5-0.9-0.7-1.4c-0.2-0.4-0.3-0.8-0.3-1.2l-1.3,0.1v-2.1h7.9v1.8c-0.5-0.1-1,0-1.4,0.2c-0.2,0.1-0.3,0.2-0.4,0.3
	c-0.1,0.1-0.1,0.3-0.1,0.5c0,0.4,0.1,0.7,0.3,1l2,3.3l0.6,1c0.3,0.5,0.6,1,0.8,1.5l0.2-0.4l0.2-0.5l0.8-1.7l1.4-2.7
	c0.4-0.9,0.9-1.7,1.4-2.4l-1.4,0.1h-0.7v-2.1h6v1.8c-0.6,0.1-1.2,0.3-1.7,0.7c-0.6,0.6-1.1,1.3-1.5,2.1l-3.5,6.7v3
	c0,0.8,0,1.6-0.1,2.4c0.6-0.1,1.3-0.1,2.2-0.1v2.1h-7.8V61.8z"/>
<path d="M85.4,61.8c0.4,0,0.8-0.1,1.1-0.2c0.1-0.1,0.3-0.1,0.4-0.3c0.1-0.1,0.2-0.2,0.2-0.4c0.2-0.5,0.2-1,0.2-1.5V49.2
	c0-0.8,0-1.6,0.1-2.4l-2,0.1v-2h13.5l0.2,5.2h-1.8c0.1-0.5,0.1-0.9-0.1-1.4c-0.1-0.4-0.4-0.8-0.7-1.2c-0.3-0.3-0.7-0.6-1.1-0.7
	c-0.4-0.2-0.9-0.2-1.4-0.1h-1c-0.4,0-0.7,0.1-1,0.2c-0.1,0.1-0.3,0.2-0.4,0.3c-0.1,0.1-0.2,0.2-0.2,0.4c-0.2,0.5-0.2,1-0.2,1.5v4
	h3.2c0-0.3,0-1.1-0.1-2.3h2.1v6.5h-1.8c0-0.6-0.1-1.1-0.3-1.6c-0.2-0.3-0.5-0.5-0.9-0.7c-0.5-0.1-1-0.1-1.4-0.1h-0.7v4.4
	c0,0.8,0,1.6-0.1,2.4h3.6c0.4,0,0.9-0.1,1.3-0.2c0.4-0.2,0.8-0.4,1.1-0.7c0.4-0.4,0.6-0.9,0.8-1.4c0.2-0.5,0.2-1,0.2-1.6h1.8
	l-0.1,5.9H85.4V61.8z"/>
<path d="M110.4,61.8c0.4,0,0.7-0.1,1.1-0.2c0.1-0.1,0.3-0.1,0.4-0.3c0.1-0.1,0.2-0.2,0.2-0.4c0.2-0.5,0.2-1,0.2-1.5V49.2
	c0-0.8,0-1.6,0.1-2.4l-2,0.1v-2h7.7c2-0.1,4,0.3,5.7,1.3c0.7,0.5,1.2,1.1,1.6,1.9c0.4,0.7,0.5,1.6,0.4,2.4c0,1.2-0.4,2.4-1.2,3.3
	c-0.9,1-2.2,1.8-3.5,2.1c0.4,0.2,0.7,0.4,1,0.7c0.3,0.3,0.6,0.6,0.9,1l1.3,1.9c0.4,0.7,0.9,1.4,1.5,1.9c0.4,0.4,0.9,0.6,1.5,0.6v1.8
	h-4.5c-0.4-0.3-0.7-0.6-0.9-0.9c-0.3-0.4-0.7-0.9-1-1.6l-2-3.2c-0.3-0.6-0.7-1.1-1.1-1.6h-1.4v2.9c0,0.8,0,1.6-0.1,2.4
	c0.6,0,1.3-0.1,2.3-0.1v2.1h-8V61.8z M120.6,53.4c0.4-0.4,0.6-0.9,0.8-1.4c0.2-0.5,0.2-1.1,0.2-1.6c0.1-0.5,0-1.1-0.2-1.6
	c-0.2-0.5-0.5-1-0.9-1.3c-0.8-0.5-1.7-0.7-2.6-0.7c-0.5,0-1,0.1-1.4,0.4c-0.4,0.5-0.5,1.1-0.4,1.7v5.5c0.4,0.1,0.9,0.1,1.3,0.1
	c0.6,0.1,1.2,0,1.7-0.2C119.7,54.1,120.2,53.8,120.6,53.4L120.6,53.4z"/>
<path d="M141.5,63.7c-0.8-0.2-1.6-0.5-2.3-1l0.1,1.1h-2.1v-6.2h1.8c0.1,1.3,0.8,2.5,1.7,3.4c0.9,0.8,2.1,1.2,3.3,1.2
	c0.8,0,1.7-0.2,2.3-0.7c0.3-0.2,0.5-0.5,0.7-0.8c0.2-0.3,0.2-0.6,0.2-1c0-0.3,0-0.5-0.2-0.8s-0.3-0.5-0.5-0.7
	c-0.4-0.4-0.8-0.7-1.3-1c-0.5-0.2-1.3-0.6-2.4-1c-1.7-0.6-3.2-1.5-4.5-2.7c-0.5-0.5-0.9-1.1-1.2-1.8c-0.3-0.7-0.4-1.4-0.4-2.1
	c0-0.8,0.2-1.7,0.6-2.4c0.5-0.8,1.2-1.5,2-1.9c1.1-0.6,2.4-0.8,3.6-0.8c0.8,0,1.6,0.1,2.4,0.3c0.8,0.2,1.5,0.5,2.1,0.9l-0.1-1.1h2.1
	v6.2h-1.8c-0.1-1.3-0.7-2.4-1.5-3.3c-0.4-0.4-0.9-0.7-1.4-0.9c-0.5-0.2-1.1-0.3-1.6-0.3c-0.7,0-1.5,0.2-2.1,0.7
	c-0.3,0.2-0.5,0.4-0.6,0.7c-0.2,0.3-0.2,0.6-0.2,0.9c0,0.4,0.1,0.8,0.3,1.1c0.2,0.3,0.4,0.6,0.7,0.9c1,0.7,2.2,1.3,3.4,1.7
	c1.6,0.6,3.1,1.4,4.4,2.5c0.6,0.4,1,1,1.3,1.7c0.3,0.6,0.4,1.4,0.4,2.1c0,1-0.3,2-0.9,2.8c-0.6,0.8-1.5,1.5-2.4,1.9
	c-1.1,0.5-2.4,0.7-3.6,0.7C143.1,64,142.3,63.9,141.5,63.7z"/>
<path d="M0,25.8c0.2,0,0.4,0,0.6-0.1c0.2-0.1,0.3-0.2,0.3-0.4c0.1-0.3,0.1-0.6,0.1-0.9v-5.8c0-0.5,0-0.9,0.1-1.4L0,17.4v-1.2h4.3
	c1.1-0.1,2.2,0.2,3.2,0.7c0.4,0.3,0.7,0.6,0.9,1.1c0.2,0.4,0.3,0.9,0.2,1.4c0,0.7-0.2,1.3-0.7,1.8c-0.5,0.6-1.2,1-2,1.2
	c0.2,0.1,0.4,0.2,0.6,0.4c0.2,0.2,0.4,0.4,0.5,0.6l0.7,1c0.2,0.4,0.5,0.8,0.9,1.1c0.2,0.2,0.5,0.3,0.8,0.3v1H6.9
	c-0.2-0.1-0.4-0.3-0.5-0.5C6.2,26,6,25.7,5.8,25.4l-1.1-1.8C4.5,23.3,4.3,23,4,22.7H3.3v1.6c0,0.5,0,0.9,0,1.4c0.4,0,0.9,0,1.3,0
	v1.2H0V25.8z M5.8,21.1c0.2-0.2,0.4-0.5,0.5-0.8c0.1-0.3,0.1-0.6,0.1-0.9c0-0.3,0-0.6-0.1-0.9c-0.1-0.3-0.3-0.5-0.5-0.7
	c-0.4-0.3-0.9-0.4-1.4-0.4c-0.3,0-0.6,0.1-0.8,0.2c-0.1,0.1-0.2,0.3-0.2,0.5c0,0.2-0.1,0.3,0,0.5v3.1c0.2,0,0.5,0.1,0.7,0.1
	C4.7,21.7,5.3,21.5,5.8,21.1z"/>
<path d="M15.2,26.7c-0.2-0.2-0.3-0.5-0.3-0.8c0-0.2,0-0.3,0.1-0.5c0.1-0.1,0.1-0.3,0.3-0.4c0.1-0.1,0.2-0.2,0.3-0.3
	c0.1-0.1,0.3-0.1,0.4-0.1c0.1,0,0.3,0,0.4,0.1c0.1,0.1,0.3,0.1,0.4,0.3c0.2,0.2,0.3,0.5,0.3,0.8s-0.1,0.6-0.3,0.8
	c-0.1,0.1-0.2,0.2-0.4,0.3C16.3,27,16.2,27.1,16,27c-0.1,0-0.3,0-0.4-0.1C15.5,26.9,15.3,26.8,15.2,26.7z"/>
<path d="M26.5,22c-0.2-0.3-0.3-0.8-0.6-1.5c-0.2-0.6-0.4-1.3-0.5-1.9c0,0.9,0,1.7,0,2.5v3.2c0,0.5,0,0.9-0.1,1.4c0.4,0,0.8,0,1.2,0
	v1.2H23v-1c0.2,0,0.4,0,0.6-0.1c0.2-0.1,0.3-0.2,0.3-0.4c0.1-0.3,0.1-0.6,0.1-0.9l0.1-5.8c0-0.7,0-1.2,0-1.4h-1.1v-1.2h3.4l2.3,5.8
	l0.5,1.3c0.2,0.5,0.3,0.8,0.4,1.1c0-0.1,0.2-0.4,0.3-0.9c0.2-0.5,0.3-0.8,0.4-1l2.4-6.2h3.5v1c-0.2,0-0.4,0-0.6,0.1
	c-0.1,0-0.1,0.1-0.2,0.1c-0.1,0.1-0.1,0.1-0.1,0.2c-0.1,0.3-0.1,0.6-0.1,0.9l0.3,5.8c0.1,0.5,0.1,0.9,0,1.4c0.4,0,0.8,0,1.2,0v1.2
	h-4.3v-1c0.2,0,0.4,0,0.6-0.1c0.2-0.1,0.3-0.2,0.3-0.4c0.1-0.3,0.1-0.6,0.1-0.9l-0.1-3.2v-0.6c0-1-0.1-1.7-0.1-2L30,27h-1.5L26.5,22
	z"/>
<path d="M49.7,0h-1.9v34.1h1.9V0z"/>
</svg>
