<?xml version="1.0" encoding="utf-8"?>
<!-- Generator: Adobe Illustrator 25.0.1, SVG Export Plug-In . SVG Version: 6.00 Build 0)  -->
<svg version="1.1" id="Layer_1" xmlns="http://www.w3.org/2000/svg" xmlns:xlink="http://www.w3.org/1999/xlink" x="0px" y="0px"
	 viewBox="0 0 201 64" style="enable-background:new 0 0 201 64;" xml:space="preserve">
<path d="M52.4,62.5l0.9-2.1c1.2,0.8,2.5,1.3,3.9,1.3c1.6,0,2.3-0.5,2.3-1.3c0-2.2-6.9-0.7-6.9-5.1c0-2,1.6-3.7,5-3.7
	c1.4,0,2.9,0.3,4.1,1l-0.8,2.1c-1-0.6-2.1-0.9-3.3-0.9c-1.6,0-2.3,0.6-2.3,1.4c0,2.2,6.9,0.7,6.9,5.1c0,2-1.6,3.7-5,3.7
	C55.5,64,53.8,63.5,52.4,62.5z"/>
<path d="M72.3,54h-3.8v-2.2h10.4V54H75v9.6h-2.7V54z"/>
<path d="M85.8,58.5v-6.7h2.7v6.6c0,2.3,1,3.2,2.7,3.2c1.7,0,2.7-0.9,2.7-3.2v-6.6h2.7v6.7c0,3.5-2,5.4-5.4,5.4
	C87.9,63.9,85.8,62,85.8,58.5z"/>
<path d="M105.1,51.8h5.4c3.8,0,6.6,2.4,6.6,5.9c0,3.6-2.7,6-6.6,6h-5.4V51.8z M110.4,61.4c0.5,0,1,0,1.5-0.2
	c0.5-0.2,0.9-0.4,1.3-0.8c0.4-0.3,0.7-0.8,0.9-1.2c0.2-0.5,0.3-1,0.3-1.5c0-0.5-0.1-1-0.3-1.5c-0.2-0.5-0.5-0.9-0.9-1.2
	c-0.4-0.3-0.8-0.6-1.3-0.8s-1-0.2-1.5-0.2h-2.6v7.4H110.4z"/>
<path d="M125,51.8h2.8v11.9H125V51.8z"/>
<path d="M135.6,57.7c-0.1-1.3,0.2-2.6,0.9-3.7c0.7-1.1,1.7-2,2.8-2.6c1.2-0.6,2.5-0.7,3.8-0.5c1.3,0.2,2.5,0.8,3.4,1.7
	c1,0.9,1.6,2.1,1.9,3.3c0.3,1.3,0.2,2.6-0.3,3.8c-0.5,1.2-1.3,2.3-2.4,3s-2.4,1.1-3.7,1.1c-0.8,0-1.7-0.1-2.5-0.4
	c-0.8-0.3-1.5-0.7-2.1-1.3c-0.6-0.6-1.1-1.3-1.4-2C135.8,59.4,135.6,58.6,135.6,57.7z M145.8,57.7c0-0.7-0.3-1.4-0.7-2
	c-0.4-0.6-1-1.1-1.7-1.3c-0.7-0.3-1.4-0.3-2.1-0.2c-0.7,0.2-1.4,0.5-1.9,1c-0.5,0.5-0.9,1.2-1,1.9c-0.1,0.7-0.1,1.5,0.2,2.1
	c0.3,0.7,0.8,1.3,1.4,1.7c0.6,0.4,1.3,0.6,2.1,0.6c0.5,0,1-0.1,1.5-0.3c0.5-0.2,0.9-0.5,1.2-0.8c0.4-0.4,0.6-0.8,0.8-1.3
	C145.8,58.7,145.9,58.2,145.8,57.7L145.8,57.7z"/>
<path d="M200.7,22h-4v3.9h-3V22h-4v-2.8h4v-3.9h3v3.9h4V22z"/>
<path d="M131.3,12.6v16h-3.1l-8-9.7v9.7h-3.7v-16h3.1l8,9.7v-9.7H131.3z"/>
<path d="M152.1,25.7v3h-12.4v-16h12.1v3h-8.4v3.5h7.5V22h-7.5v3.7H152.1z"/>
<path d="M163,15.6h-5.1v-3H172v3h-5.1v13h-3.7L163,15.6z"/>
<path d="M15.8,0v42.3h166.9V0H15.8z M43.9,28.7V19L39.2,27h-1.7l-4.7-7.7v9.4h-3.5V12.6h3.1l6,10l5.9-10h3.1v16H43.9z M67.8,28.7
	l-1.4-3.4h-7.5l-1.4,3.4h-3.8l7.2-16h3.7l7.2,16H67.8z M85.7,25.8c1,0,2-0.2,2.9-0.7v-4.7H92V27c-1.9,1.3-4.2,2.1-6.5,2
	c-5.1,0-8.8-3.5-8.8-8.3c0-4.8,3.8-8.4,8.9-8.4c1.3-0.1,2.5,0.2,3.7,0.6c1.2,0.5,2.2,1.2,3.1,2.1L90,17.3c-0.5-0.6-1.2-1-1.9-1.4
	c-0.7-0.3-1.5-0.5-2.3-0.4c-0.7,0-1.4,0.1-2,0.3c-0.6,0.2-1.2,0.6-1.7,1.1c-0.5,0.5-0.9,1.1-1.1,1.7c-0.3,0.6-0.4,1.3-0.4,2
	c0,0.7,0.1,1.4,0.3,2c0.3,0.6,0.6,1.2,1.1,1.7c0.5,0.5,1.1,0.9,1.7,1.1C84.4,25.7,85,25.8,85.7,25.8z M178.5,38.1h-74.6V4.2h74.6
	V38.1z"/>
<path d="M60.1,22.4h5.1l-2.5-6.1L60.1,22.4z"/>
<path d="M0,19.2h6.5V22H0V19.2z"/>
</svg>
