<?xml version="1.0" encoding="utf-8"?>
<!-- Generator: Adobe Illustrator 25.0.1, SVG Export Plug-In . SVG Version: 6.00 Build 0)  -->
<svg version="1.1" id="Layer_1" xmlns="http://www.w3.org/2000/svg" xmlns:xlink="http://www.w3.org/1999/xlink" x="0px" y="0px"
	 viewBox="0 0 194 64" style="enable-background:new 0 0 194 64;" xml:space="preserve">
<path d="M3.7,53.1c0-1.7,1.2-2.8,2.8-2.8s2.8,1,2.8,2.8C9.2,54.8,8,56,6.4,56S3.7,54.8,3.7,53.1z"/>
<path d="M32.3,55c0,1.8-1.4,2.9-4.3,2.9h-5.5V47.2h5.2c2.6,0,4.1,1.2,4.1,2.8c0,1-0.5,1.8-1.4,2.4C31.6,52.7,32.3,53.6,32.3,55z
	 M24.9,49v2.5h2.5c1.2,0,1.8-0.4,1.8-1.3c0-0.9-0.7-1.3-1.8-1.3h-2.5V49z M29.8,54.7c0-0.9-0.7-1.3-2-1.3h-2.9V56h2.9
	C29.1,56,29.8,55.6,29.8,54.7z"/>
<path d="M44.1,55.6h-5l-0.9,2.2h-2.5l4.7-10.8h2.5l4.7,10.8H45L44.1,55.6z M43.3,53.8l-1.7-4.1l-1.7,4.1H43.3z"/>
<path d="M58.4,57.8L56.3,55h-0.1H54v3h-2.5V47.2h4.6c2.9,0,4.6,1.4,4.6,3.9c0,1.6-0.8,2.8-2.2,3.4l2.4,3.4h-2.5V57.8z M56,49.2h-2
	v3.7h2c1.6,0,2.2-0.7,2.2-1.8C58.4,50,57.6,49.2,56,49.2z"/>
<path d="M75.4,55c0,1.8-1.4,2.9-4.3,2.9h-5.5V47.2h5.2c2.6,0,4.1,1.2,4.1,2.8c0,1-0.5,1.8-1.4,2.4C74.6,52.7,75.4,53.6,75.4,55z
	 M68.1,49v2.5h2.5c1.2,0,1.8-0.4,1.8-1.3c0-0.9-0.7-1.3-1.8-1.3h-2.5V49z M72.9,54.7c0-0.9-0.7-1.3-2-1.3h-2.9V56H71
	C72.3,56,72.9,55.6,72.9,54.7z"/>
<path d="M88.4,55.9v2h-8.3V47.2h8.1v2h-5.6v2.4h5v2h-5V56h5.8V55.9z"/>
<path d="M100.1,57.8l-2.1-3h-0.1h-2.1v3h-2.5V47.2h4.6c2.9,0,4.6,1.4,4.6,3.9c0,1.6-0.8,2.8-2.2,3.4l2.4,3.4h-2.5V57.8z M97.7,49.2
	h-2v3.7h2c1.6,0,2.2-0.7,2.2-1.8C99.9,50,99.1,49.2,97.7,49.2z"/>
<path d="M134.9,56.8l0.8-1.8c0.9,0.7,2.2,1.2,3.5,1.2c1.4,0,2.1-0.5,2.1-1.2c0-2-6.2-0.7-6.2-4.6c0-1.8,1.4-3.3,4.5-3.3
	c1.3,0,2.8,0.3,3.7,0.9l-0.8,1.8c-1-0.5-2-0.8-3-0.8c-1.4,0-2.1,0.5-2.1,1.2c0,2,6.2,0.7,6.2,4.6c0,1.8-1.4,3.3-4.6,3.3
	C137.7,58.1,136,57.6,134.9,56.8z"/>
<path d="M158.3,47.2V58h-2.5v-4.3H151V58h-2.5V47.2h2.5v4.2h4.9v-4.2H158.3z"/>
<path d="M162.9,52.6c0-3.1,2.5-5.5,5.9-5.5c3.4,0,5.9,2.4,5.9,5.5c0,3.1-2.5,5.5-5.9,5.5C165.4,58.1,162.9,55.7,162.9,52.6z
	 M172.2,52.6c0-2.1-1.4-3.4-3.4-3.4c-2,0-3.4,1.4-3.4,3.4c0,2.1,1.4,3.4,3.4,3.4C170.8,56,172.2,54.6,172.2,52.6z"/>
<path d="M188.6,51c0,2.4-1.8,3.8-4.6,3.8h-2.1v3h-2.5V47.2h4.6C186.8,47.2,188.6,48.7,188.6,51z M186.1,51c0-1.2-0.8-1.8-2.2-1.8h-2
	v3.7h2C185.3,53,186.1,52.2,186.1,51z"/>
<path d="M9.8,31.9c0-3.5,0.3-6.4,0.8-8.4c0.5-2.1,1.2-3.5,2.1-4.3s2-1.2,3.3-1.2c1,0,2,0.4,2.5,1.2c0.7,0.8,1,1.7,1.3,3
	c0.3,1.2,0.4,2.6,0.4,4.1c2.2,0,3.9-0.3,5.2-0.8c1.2-0.5,2.1-1.2,2.5-2c0.4-0.8,0.7-1.7,0.7-2.6c0-1.8-1-3.4-3.3-4.7s-5.4-2-9.6-2
	c-3,0-5.6,0.5-8,1.7c-2.4,1-4.3,2.9-5.6,5.5C0.7,24,0,27.5,0,32.1c0,2.1,0.1,3.9,0.5,5.6h9.8C10,35.9,9.8,34.1,9.8,31.9z"/>
<path d="M47.3,30.2c0-0.7,0-1.7,0.1-2.8c0.1-1,0.4-2.2,0.7-3.4c0.4-1.2,0.9-2.1,1.6-2.8c0.7-0.8,1.6-1.2,2.8-1.2
	c1.2,0,2.1,0.4,2.5,1.3c0.4,0.9,0.7,2.2,0.7,3.9c2.6,0,4.6-0.5,6-1.6c1.4-1,2.2-2.6,2.2-4.6c0-3.4-2.5-5.1-7.5-5.1
	c-2.6,0-4.6,0.5-5.9,1.4c-1.3,0.9-2.4,2.4-3.3,4.3H47l-1.3-5H32.5v3.4h0.1c1.4,0,2.6,0.3,3.4,0.8c0.8,0.5,1.3,1.7,1.3,3.5v15.1h9.8
	v-7.5H47.3z"/>
<path d="M77.9,31.6c0-4.5,0.5-7.9,1.4-10.2c1-2.2,2.8-3.4,5.2-3.4s4.3,1.2,5.2,3.4c1,2.2,1.6,5.6,1.6,10.2c0,2.2-0.1,4.2-0.4,5.9
	h9.8c0.4-1.8,0.5-3.8,0.5-5.9c0-5.9-1.4-10.4-4.5-13.2c-3-2.9-7.1-4.3-12.2-4.3c-5.5,0-9.8,1.4-12.6,4.3c-2.8,2.9-4.3,7.3-4.3,13.2
	c0,2.2,0.3,4.2,0.7,5.9h9.8C78,35.9,77.9,33.8,77.9,31.6z"/>
<path d="M120.7,31.9c0-4.2,0.5-7.3,1.4-9.6s2.6-3.4,5.2-3.4c2.1,0,3.7,1.2,4.6,3.4s1.4,5.5,1.4,9.7c0,2.1-0.1,4.1-0.4,5.6h10
	c0.3-1.7,0.4-3.5,0.4-5.6c0-6.2-1.2-10.6-3.4-13.5c-2.2-2.9-5.5-4.2-9.8-4.2c-2.5,0-4.6,0.5-6.2,1.6c-1.6,1-2.9,2.4-3.8,4.1h-0.3
	l-1.2-5H106v3.4h0.4c1.3,0,2.2,0.3,3.1,0.8c0.8,0.5,1.2,1.7,1.2,3.7v15h10.2C120.8,35.9,120.7,34.1,120.7,31.9z"/>
<path d="M110.8,56.5c0,1.2-0.3,2.1-0.8,2.6c-0.5,0.7-1,0.9-1.8,1.2c-0.7,0.1-1.4,0.3-2.1,0.3h-0.8V64h21.2v-3.4h-1.4
	c-0.7,0-1.3-0.1-2.1-0.3c-0.7-0.1-1.3-0.5-1.8-1.2c-0.5-0.7-0.8-1.4-0.8-2.6v-4.3c0-0.3,0-0.7,0-0.9h-9.8v5.2H110.8z"/>
<path d="M162.6,14.8h-15.2v3.4h0.8c0.7,0,1.3,0.1,2,0.3c0.7,0.1,1.3,0.5,1.8,1c0.5,0.5,0.8,1.4,0.8,2.5v15.6h9.8V14.8z"/>
<path d="M153.4,8c1,0.8,2.4,1,3.9,1c1.6,0,2.8-0.4,3.9-1c1-0.8,1.7-1.8,1.7-3.4s-0.5-2.8-1.7-3.5c-1-0.7-2.4-1-3.9-1
	c-1.6,0-2.9,0.4-3.9,1c-1,0.7-1.6,1.8-1.6,3.5C151.9,6.2,152.4,7.2,153.4,8z"/>
<path d="M185.2,19.1h8.3v-4.3h-8.3V7h-5.4c-0.7,2.8-1.7,4.9-3,6.3c-0.7,0.7-1.6,1.3-2.6,1.8c-1,0.5-2.4,0.8-3.7,0.8v3.3h4.9v18.5
	h9.8V19.1z"/>
</svg>
