<svg xmlns="http://www.w3.org/2000/svg" viewBox="0 0 512 512"><g id="Layer_2" data-name="Layer 2"><g id="Layer_1-2" data-name="Layer 1"><path d="M416,192a95.44,95.44,0,0,1-30.94,70.21A95.8,95.8,0,0,1,352,448H160a96,96,0,0,1,0-192h88.91A95.29,95.29,0,0,1,224,192H96A96,96,0,0,0,0,288V416a96,96,0,0,0,96,96H416a96,96,0,0,0,96-96V288A96,96,0,0,0,416,192Z" style="fill:#fff"/><circle cx="320" cy="192" r="64" style="fill:#fff"/><circle cx="208" cy="48" r="48" style="fill:#fff"/><circle cx="384" cy="32" r="32" style="fill:#fff"/><path d="M160,288a64,64,0,0,0,0,128H352a64,64,0,0,0,0-128Z" style="fill:#fff"/></g></g></svg>